<svg xmlns="http://www.w3.org/2000/svg" viewBox="0 0 117 137"><style type="text/css">.st0{fill:#fff}.st1{fill:#e30916}.st2{fill:#eb610a}.st3{fill:#f69f03}.st4{fill:#005caa}.st5{fill:#f7a824}</style><path class="st0" d="M29 129.1c-.3-.3-.6-.5-.9-.6-.4-.1-.7-.2-1.2-.2-.2 0-.5 0-.7.1-.2 0-.5.1-.7.2-.2.1-.4.2-.7.4-.2.2-.4.4-.5.6-.2-.4-.6-.7-1-1-.4-.2-.9-.3-1.4-.3h-.6c-.2 0-.4.1-.6.2l-.6.3c-.2.1-.3.3-.5.5v-.9h-1.5v7.3h1.6v-4.1c0-.3 0-.6.1-.8.1-.2.2-.4.4-.6.2-.2.4-.3.6-.4.2-.1.5-.1.7-.1.5 0 .9.2 1.2.5.3.3.4.8.4 1.4v4.1h1.6v-4.1c0-.3 0-.6.1-.8.1-.2.2-.4.4-.6.2-.2.4-.3.6-.4.2-.1.5-.1.7-.1.5 0 .9.2 1.2.5.3.3.4.8.4 1.4v4.1h1.6v-4.6c0-.4-.1-.8-.2-1.2 0-.2-.2-.5-.5-.8zm8.2.3c-.3-.3-.6-.6-.9-.8-.4-.2-.8-.3-1.4-.3-.5 0-1 .1-1.4.3-.4.2-.8.5-1.2.8-.3.3-.6.7-.8 1.2-.2.5-.3 1-.3 1.6 0 .6.1 1.1.3 1.6.2.5.4.9.8 1.2.3.3.7.6 1.2.8.4.2.9.3 1.4.3.5 0 1-.1 1.4-.3.4-.2.7-.5.9-.8v.9h1.6v-7.3h-1.6v.8zm0 3.7c-.1.3-.3.5-.5.7-.2.2-.4.4-.7.5-.3.1-.6.2-.9.2-.3 0-.7-.1-.9-.2-.3-.1-.5-.3-.7-.5-.2-.2-.3-.5-.4-.7-.1-.3-.2-.6-.2-.9 0-.3.1-.6.2-.9.1-.3.2-.5.4-.7.2-.2.4-.4.7-.5.3-.1.6-.2.9-.2.3 0 .6.1.9.2.3.1.5.3.7.5l.5.7c.1.3.2.6.2.9l-.2.9zm9-1c-.4-.3-1.1-.6-1.9-.7l-.8-.1-.5-.1-.4-.1-.3-.2c-.1-.1-.1-.2-.1-.3 0-.3.1-.5.4-.6.2-.2.6-.2 1-.2.2 0 .5 0 .7.1.2 0 .4.1.6.2.2.1.4.1.5.2.2.1.3.1.4.2l.7-1.2c-.4-.2-.8-.4-1.3-.6-.5-.1-1.1-.2-1.6-.2s-.9.1-1.3.2-.7.3-1 .5c-.3.2-.5.4-.6.7-.1.3-.2.6-.2 1 0 .6.2 1.1.6 1.4.4.4 1 .6 1.9.7l.8.1c.4.1.8.2 1 .3.2.1.3.3.3.5 0 .3-.1.5-.4.7-.3.2-.7.2-1.2.2-.3 0-.6 0-.8-.1-.2 0-.5-.1-.7-.2-.2-.1-.4-.1-.5-.2-.2-.1-.3-.2-.4-.3l-.7 1.2c.3.2.5.4.8.5l.9.3c.3.1.5.1.8.1h.7c.5 0 1-.1 1.4-.2.4-.1.8-.3 1-.5.3-.2.5-.5.7-.8s.2-.6.2-1c0-.6-.2-1.1-.7-1.5zm15-2.8c-.3-.3-.7-.6-1.1-.8-.4-.2-.9-.3-1.4-.3-.5 0-1 .1-1.5.3-.4.2-.8.4-1.2.8-.3.3-.6.7-.8 1.2-.2.5-.3 1-.3 1.6 0 .6.1 1.1.3 1.6.2.5.4.9.8 1.2.3.3.7.6 1.2.8.5.2 1 .3 1.5.3.6 0 1.1-.1 1.6-.2.5-.2 1-.4 1.4-.8l-.8-1.1c-.3.2-.6.4-1 .6-.4.1-.7.2-1.1.2-.3 0-.5 0-.8-.1l-.7-.3c-.2-.2-.4-.3-.5-.6-.1-.2-.2-.5-.3-.9h5.4v-.6c0-.6-.1-1.1-.3-1.6.1-.5-.1-.9-.4-1.3zm-4.5 2.2c0-.3.1-.5.2-.7.1-.2.2-.4.4-.6.2-.2.4-.3.6-.4.2-.1.5-.1.8-.1.5 0 .9.2 1.2.5.3.3.5.8.6 1.3h-3.8zm25.8-2.1c-.3-.3-.6-.6-.9-.8-.4-.2-.8-.3-1.4-.3-.5 0-1 .1-1.4.3-.4.2-.8.5-1.2.8-.3.3-.6.7-.8 1.2-.2.5-.3 1-.3 1.6 0 .6.1 1.1.3 1.6.2.5.4.9.8 1.2.3.3.7.6 1.2.8.4.2.9.3 1.4.3.5 0 1-.1 1.4-.3.4-.2.7-.5.9-.8v.9h1.6v-7.3h-1.6v.8zm-.1 3.7c-.1.3-.3.5-.5.7-.2.2-.4.4-.7.5-.3.1-.6.2-.9.2-.3 0-.7-.1-.9-.2s-.5-.3-.7-.5c-.2-.2-.3-.5-.4-.7-.1-.3-.2-.6-.2-.9 0-.3.1-.6.2-.9.1-.3.2-.5.4-.7.2-.2.4-.4.7-.5.3-.1.6-.2.9-.2.3 0 .6.1.9.2.3.1.5.3.7.5l.5.7c.1.3.2.6.2.9 0 .3-.1.6-.2.9zm-29.3 1.2c-.3.1-.5.1-.8.1-.2 0-.3 0-.5-.1l-.4-.2c-.1-.1-.2-.3-.2-.4s-.1-.4-.1-.6v-3.2h2.6v-1.5h-2.6v-2.2h-1.6v2.2H48v1.5h1.5v3.2c0 1 .2 1.7.7 2.2.5.5 1.1.7 1.9.7.5 0 .9-.1 1.3-.2l.7-.3-.5-1.3c-.2 0-.4.1-.5.1zm14.4-6c-.4 0-.9.1-1.2.2-.4.2-.7.6-.9.9v-1h-1.5v7.3h1.5v-4c0-.3 0-.6.1-.8.1-.2.2-.5.4-.6.2-.2.3-.3.6-.4.2-.1.4-.1.7-.1.2 0 .4 0 .6.1l.3.1.5-1.5-.4-.1c-.2-.1-.4-.1-.7-.1zm22.3 0c-.4 0-.9.1-1.2.2-.4.2-.7.6-.9.9v-1h-1.5v7.3h1.5v-4c0-.3 0-.6.1-.8.1-.2.2-.5.4-.6.2-.2.3-.3.6-.4.2-.1.4-.1.7-.1.2 0 .4 0 .6.1l.3.1.5-1.5-.4-.1c-.3-.1-.5-.1-.7-.1zm7.5-2.8v3.9c-.3-.3-.6-.6-.9-.8-.4-.2-.8-.3-1.4-.3-.5 0-1 .1-1.4.3-.4.2-.8.5-1.2.8-.3.3-.6.7-.8 1.2-.2.5-.3 1-.3 1.6 0 .6.1 1.1.3 1.6.2.5.4.9.8 1.2.3.3.7.6 1.2.8.4.2.9.3 1.4.3.5 0 1-.1 1.4-.3.4-.2.7-.5.9-.8v.9h1.6v-10.3h-1.6zm-.1 7.6c-.1.3-.3.5-.5.7-.2.2-.4.4-.7.5-.3.1-.6.2-.9.2-.3 0-.7-.1-.9-.2-.3-.1-.5-.3-.7-.5-.2-.2-.3-.5-.4-.7-.1-.3-.2-.6-.2-.9 0-.3.1-.6.2-.9.1-.3.2-.5.4-.7.2-.2.4-.4.7-.5.3-.1.6-.2.9-.2.3 0 .6.1.9.2.3.1.5.3.7.5l.5.7c.1.3.2.6.2.9 0 .3-.1.6-.2.9zm-25.8-2.7c.2-.2.4-.4.7-.5.3-.1.6-.2.9-.2.4 0 .7.1 1 .2.3.1.6.3.8.5l.8-1.3c-.3-.2-.6-.4-1-.6-.5-.2-1-.3-1.6-.3-.6 0-1.1.1-1.6.3-.5.2-.9.5-1.2.8-.3.3-.6.8-.8 1.2-.2.5-.3 1-.3 1.5 0 .6.1 1.1.3 1.5.2.5.5.9.8 1.2.3.3.8.6 1.2.8.5.2 1 .3 1.6.3.6 0 1.1-.1 1.6-.3.4-.1.7-.3 1-.6l-.8-1.3c-.2.2-.5.4-.8.5-.3.1-.6.2-1 .2-.3 0-.6-.1-.9-.2-.3-.1-.5-.3-.7-.5-.2-.2-.4-.5-.5-.7-.1-.3-.2-.6-.2-1 0-.3.1-.7.2-1 .1 0 .2-.2.5-.5z"/><path class="st1" d="M48 94.2c0-8.8 4.1-16.6 10.5-21.7-4.7-3.7-10.7-6-17.2-6-15.3 0-27.7 12.4-27.7 27.7s12.4 27.7 27.7 27.7c6.5 0 12.4-2.2 17.2-6C52.1 110.8 48 103 48 94.2zm0 0c0 8.8 4.1 16.6 10.5 21.7C64.9 110.8 69 103 69 94.2s-4.1-16.6-10.5-21.7C52.1 77.6 48 85.4 48 94.2zm27.6-27.7c-6.5 0-12.4 2.2-17.2 6C64.9 77.6 69 85.4 69 94.2s-4.1 16.6-10.5 21.7c4.7 3.7 10.7 6 17.2 6 15.3 0 27.7-12.4 27.7-27.7S90.9 66.5 75.6 66.5z"/><path class="st2" d="M48 94.2c0 8.8 4.1 16.6 10.5 21.7C64.9 110.8 69 103 69 94.2s-4.1-16.6-10.5-21.7C52.1 77.6 48 85.4 48 94.2z"/><path class="st3" d="M75.6 66.5c-6.5 0-12.4 2.2-17.2 6C64.9 77.6 69 85.4 69 94.2s-4.1 16.6-10.5 21.7c4.7 3.7 10.7 6 17.2 6 15.3 0 27.7-12.4 27.7-27.7S90.9 66.5 75.6 66.5z"/><path class="st4" d="M50.4 37.1h-9.5L46.8.7h9.5zM32.9.7l-9 25-1.1-5.4-3.2-16.4S19.2.6 15.1.6H.2l-.2.7s4.6 1 9.9 4.2l8.2 31.6H28L43.1.7H32.9zm74.6 36.4h8.7L108.6.7H101c-3.5 0-4.4 2.7-4.4 2.7L82.4 37.1h9.9l2-5.4h12.1l1.1 5.4zM97 24.2l5-13.6 2.8 13.6H97zM83.2 9.4l1.4-7.8S80.4 0 76.1 0c-4.7 0-15.9 2.1-15.9 12.1 0 9.4 13.1 9.5 13.1 14.5s-11.8 4.1-15.6.9l-1.4 8.2s4.2 2.1 10.7 2.1c6.5 0 16.2-3.4 16.2-12.5C83.2 15.8 70 15 70 10.8c-.1-4.2 9.1-3.6 13.2-1.4z"/><path class="st5" d="M22.8 20.3L19.6 3.9S19.2.6 15.1.6H.2l-.2.7s7.2 1.5 14.1 7.1c6.6 5.3 8.7 11.9 8.7 11.9z"/></svg>